<?xml version="1.0" standalone="no"?>
<!DOCTYPE svg PUBLIC "-//W3C//DTD SVG 20010904//EN"
 "http://www.w3.org/TR/2001/REC-SVG-20010904/DTD/svg10.dtd">
<svg version="1.0" xmlns="http://www.w3.org/2000/svg"
 width="512.000000pt" height="512.000000pt" viewBox="0 0 512.000000 512.000000"
 preserveAspectRatio="xMidYMid meet">
<metadata>
Created by potrace 1.11, written by Peter Selinger 2001-2013
</metadata>
<g transform="translate(0.000000,512.000000) scale(0.100000,-0.100000)"
fill="#000000" stroke="none">
<path d="M2200 4618 c-25 -11 -49 -27 -53 -34 -4 -8 -16 -14 -25 -14 -13 0
-17 -8 -16 -35 1 -19 -2 -33 -6 -30 -5 3 -12 0 -15 -6 -10 -15 -88 -7 -101 10
-14 18 -44 23 -41 8 1 -6 -3 -11 -10 -12 -6 0 -15 -4 -20 -10 -4 -6 -4 -7 1
-3 5 4 16 2 24 -5 13 -10 14 -9 7 2 -5 10 -4 12 4 7 6 -4 9 -11 6 -16 -3 -5
-1 -11 4 -15 6 -3 3 -17 -6 -34 -15 -25 -21 -27 -56 -23 -22 2 -37 0 -34 -5 3
-5 -7 -8 -21 -7 -15 0 -36 -2 -47 -6 -11 -4 -32 -4 -48 1 -16 5 -25 4 -22 -2
6 -8 -16 -14 -39 -10 -4 1 -17 -8 -27 -20 -10 -12 -19 -18 -19 -13 0 5 -11 -3
-24 -18 -12 -15 -27 -24 -31 -20 -5 4 -5 2 -2 -4 7 -13 -16 -38 -26 -28 -3 3
-8 -4 -12 -15 -3 -12 -11 -19 -16 -16 -5 4 -9 1 -9 -6 0 -7 -2 -10 -5 -7 -3 2
-28 -18 -56 -45 -37 -35 -56 -47 -71 -44 -11 3 -17 3 -14 0 3 -4 -12 -18 -34
-33 -40 -26 -130 -116 -130 -129 0 -4 -11 -17 -24 -30 -39 -37 -85 -174 -100
-303 -3 -20 -10 -56 -17 -80 -7 -24 -12 -46 -11 -50 1 -5 -2 -8 -7 -8 -5 0 -8
-12 -6 -26 1 -14 -3 -28 -11 -31 -7 -2 -10 -12 -7 -20 4 -9 2 -14 -3 -11 -10
7 -11 -208 -1 -219 4 -3 2 -12 -4 -20 -6 -7 -7 -13 -2 -13 5 0 10 -19 11 -42
4 -88 7 -108 16 -108 5 0 6 -3 3 -6 -3 -4 -2 -15 3 -25 7 -12 6 -19 -3 -22 -9
-4 -9 -6 1 -6 7 -1 10 -5 7 -11 -3 -5 -1 -38 6 -72 6 -35 13 -72 14 -83 1 -11
3 -20 4 -20 3 0 10 -32 15 -72 2 -18 7 -36 10 -41 3 -5 8 -38 11 -74 5 -55 3
-67 -14 -82 -27 -24 -34 -81 -22 -168 5 -40 12 -100 15 -133 5 -74 29 -129
141 -320 30 -51 55 -141 52 -180 -4 -40 28 -123 61 -159 42 -45 83 -58 137
-45 25 6 48 15 51 20 11 19 22 8 28 -28 13 -69 38 -137 102 -268 66 -136 84
-159 240 -305 104 -97 265 -230 279 -230 4 0 25 -13 48 -29 129 -88 335 -160
514 -178 43 -4 166 -8 273 -8 192 0 196 0 245 27 43 23 128 88 168 130 7 7 70
81 141 163 124 144 242 309 291 405 47 92 102 311 120 475 3 22 7 157 10 301
3 166 9 272 16 290 7 17 13 89 13 169 2 136 3 142 31 190 21 35 30 64 31 100
3 109 16 450 17 455 1 3 -2 24 -6 46 -4 25 -2 58 6 85 7 24 12 60 10 79 -1 19
-2 69 -2 111 0 82 -7 113 -24 102 -6 -4 -8 0 -4 10 3 10 3 17 -1 17 -4 0 -12
11 -18 24 -9 18 -9 28 0 37 8 9 8 10 -3 4 -11 -6 -13 -3 -9 13 4 12 2 20 -3
16 -5 -3 -9 -1 -9 4 0 6 7 12 14 15 8 3 22 20 31 38 24 46 13 87 -50 179 -29
43 -51 81 -48 83 8 8 -20 76 -29 71 -4 -3 -8 0 -8 5 0 6 -6 11 -14 11 -7 0
-25 11 -40 25 -15 14 -29 25 -31 25 -16 0 -94 64 -89 72 4 6 2 8 -4 4 -6 -3
-13 -2 -17 4 -4 6 -10 8 -15 5 -4 -3 -11 2 -14 11 -3 8 -2 12 4 9 6 -3 10 -4
10 -1 0 3 -10 10 -21 17 -17 9 -20 8 -14 -2 5 -8 4 -10 -3 -5 -7 4 -12 14 -12
23 0 9 -3 14 -6 10 -4 -3 -13 0 -20 8 -20 20 -17 27 5 15 17 -8 20 -7 18 9 -1
14 -5 17 -12 11 -7 -6 -16 -5 -25 3 -9 8 -11 9 -6 0 3 -6 2 -14 -3 -17 -5 -4
-12 3 -16 14 -3 11 -11 20 -16 20 -5 0 -21 8 -36 17 -14 10 -32 18 -39 19 -8
1 -21 9 -30 18 -8 9 -21 16 -27 16 -7 0 -25 7 -42 16 -16 8 -42 16 -57 17 -15
1 -28 5 -28 9 0 5 -3 7 -7 7 -5 -1 -10 -1 -13 1 -17 6 -81 7 -70 0 7 -4 23 -7
37 -5 19 2 21 0 11 -12 -6 -8 -17 -12 -25 -9 -7 3 -13 1 -13 -5 0 -6 -6 -7
-12 -2 -7 4 -19 8 -26 9 -8 2 -21 5 -29 9 -14 5 -14 7 2 19 15 11 16 13 1 13
-9 0 -16 -4 -16 -9 0 -4 -7 -8 -16 -8 -8 0 -13 4 -9 9 3 6 -4 8 -15 6 -11 -2
-20 1 -20 7 0 6 -10 3 -22 -8 -12 -10 -19 -14 -15 -8 4 6 -14 15 -43 23 -28 7
-50 17 -50 22 0 5 -3 8 -7 8 -23 -4 -43 2 -38 11 4 6 -1 7 -11 3 -10 -4 -22 0
-29 11 -11 14 -23 16 -76 11 -35 -4 -81 -8 -101 -10 -21 -2 -59 -6 -85 -9 -26
-3 -42 -3 -35 0 6 3 12 10 12 16 0 6 -7 5 -16 -3 -22 -18 -99 -25 -88 -7 6 11
5 11 -8 0 -17 -14 -92 -7 -83 7 2 4 -6 7 -18 6 -12 -1 -46 6 -76 17 -68 23
-85 22 -141 -4z"/>
<path d="M2506 4622 c-3 -5 1 -9 9 -9 8 0 12 4 9 9 -3 4 -7 8 -9 8 -2 0 -6 -4
-9 -8z"/>
<path d="M2060 4540 c-11 -11 -20 -26 -20 -32 1 -7 6 -4 13 8 7 12 17 19 24
17 14 -5 27 14 14 22 -6 3 -19 -3 -31 -15z"/>
<path d="M2010 4530 c-9 -6 -10 -10 -3 -10 6 0 15 5 18 10 8 12 4 12 -15 0z"/>
<path d="M3705 4369 c-4 -6 -5 -12 -2 -15 2 -3 7 2 10 11 7 17 1 20 -8 4z"/>
<path d="M3730 4368 c0 -12 7 -18 23 -17 15 0 17 2 7 6 -8 3 -18 11 -22 17 -5
7 -8 4 -8 -6z"/>
<path d="M3816 4345 c4 -8 10 -15 16 -15 5 0 6 -5 2 -12 -5 -7 -3 -8 5 -4 9 6
8 13 -5 27 -21 23 -25 24 -18 4z"/>
<path d="M3786 4325 c4 -8 11 -15 16 -15 6 0 5 6 -2 15 -7 8 -14 15 -16 15 -2
0 -1 -7 2 -15z"/>
<path d="M3745 4311 c11 -13 19 -26 17 -29 -2 -4 2 -8 8 -10 17 -6 -3 30 -27
49 -14 11 -14 9 2 -10z"/>
<path d="M3850 4301 c0 -6 4 -13 10 -16 6 -3 7 1 4 9 -7 18 -14 21 -14 7z"/>
<path d="M3793 4255 c0 -8 4 -12 9 -9 4 3 8 9 8 15 0 5 -4 9 -8 9 -5 0 -9 -7
-9 -15z"/>
<path d="M3816 4241 c-4 -5 -2 -12 3 -15 5 -4 12 -2 15 3 4 5 2 12 -3 15 -5 4
-12 2 -15 -3z"/>
<path d="M3859 4238 c-5 -18 -6 -38 -1 -34 7 8 12 36 6 36 -2 0 -4 -1 -5 -2z"/>
<path d="M3875 4200 c-3 -5 -1 -10 4 -10 6 0 11 5 11 10 0 6 -2 10 -4 10 -3 0
-8 -4 -11 -10z"/>
<path d="M3897 4183 c-4 -3 -7 -11 -7 -17 0 -6 5 -5 12 2 6 6 9 14 7 17 -3 3
-9 2 -12 -2z"/>
</g>
</svg>
